<svg width="1584" height="396" viewBox="0 0 1584 396" fill="none" xmlns="http://www.w3.org/2000/svg">
<rect width="1584" height="396" fill="#F5F5F5"/>
<g id="Awesome banner" clip-path="url(#clip0_0_1)">
<rect width="1584" height="396" fill="url(#paint0_linear_0_1)"/>
<ellipse id="Ellipse 2" cx="323" cy="64" rx="285" ry="288" fill="url(#paint1_linear_0_1)" fill-opacity="0.1"/>
<g id="copyright">
<path d="M75.95 334.52L72.30 334.52L72.30 311.16L77.20 311.16L83.70 330.04Q83.60 329.02 83.50 327.62Q83.41 326.23 83.33 324.79Q83.25 323.35 83.25 322.23L83.25 311.16L86.90 311.16L86.90 334.52L82 334.52L75.57 315.64Q75.63 316.57 75.73 317.88Q75.82 319.19 75.89 320.57Q75.95 321.94 75.95 323.10L75.95 334.52M98.80 334.84Q96.46 334.84 94.67 333.96Q92.88 333.08 91.89 331.53Q90.90 329.98 90.90 327.93Q90.90 325.78 92.13 324.18Q93.36 322.58 95.34 322.17L95.34 322.10Q93.65 321.75 92.61 320.38Q91.57 319 91.57 317.11Q91.57 315.26 92.48 313.85Q93.39 312.44 95.02 311.64Q96.66 310.84 98.80 310.84Q100.94 310.84 102.59 311.64Q104.24 312.44 105.15 313.85Q106.06 315.26 106.06 317.11Q106.06 319 105.01 320.38Q103.95 321.75 102.26 322.10L102.26 322.17Q104.24 322.58 105.47 324.18Q106.70 325.78 106.70 327.93Q106.70 329.98 105.71 331.53Q104.72 333.08 102.93 333.96Q101.14 334.84 98.80 334.84M98.80 320.73Q100.30 320.73 101.23 319.82Q102.16 318.90 102.16 317.46Q102.16 315.99 101.23 315.08Q100.30 314.17 98.80 314.17Q97.30 314.17 96.37 315.08Q95.44 315.99 95.44 317.46Q95.44 318.90 96.37 319.82Q97.30 320.73 98.80 320.73M98.80 331.45Q100.56 331.45 101.68 330.42Q102.80 329.40 102.80 327.74Q102.80 326.04 101.68 325Q100.56 323.96 98.80 323.96Q97.04 323.96 95.92 325Q94.80 326.04 94.80 327.74Q94.80 329.40 95.92 330.42Q97.04 331.45 98.80 331.45M114.35 334.52L110.70 334.52L110.70 311.16L115.60 311.16L122.10 330.04Q122 329.02 121.90 327.62Q121.81 326.23 121.73 324.79Q121.65 323.35 121.65 322.23L121.65 311.16L125.30 311.16L125.30 334.52L120.40 334.52L113.97 315.64Q114.03 316.57 114.13 317.88Q114.22 319.19 114.29 320.57Q114.35 321.94 114.35 323.10" fill="white" fill-opacity="0.9"/>
<path d="M161.48 325.24L151.24 325.24L151.24 322.68L161.48 322.68" fill="white" fill-opacity="0.9"/>
<path d="M195.02 334.84Q191.82 334.84 189.96 333.05Q188.11 331.26 188.11 328.12L188.11 317.56Q188.11 314.42 189.96 312.63Q191.82 310.84 195.02 310.84Q198.15 310.84 200.01 312.65Q201.87 314.46 201.87 317.56L198.99 317.56Q198.99 315.58 197.95 314.50Q196.91 313.43 195.02 313.43Q193.13 313.43 192.06 314.50Q190.99 315.58 190.99 317.56L190.99 328.12Q190.99 330.10 192.06 331.18Q193.13 332.25 195.02 332.25Q196.91 332.25 197.95 331.18Q198.99 330.10 198.99 328.12L201.87 328.12Q201.87 331.22 200.01 333.03Q198.15 334.84 195.02 334.84" fill="white" fill-opacity="0.9"/>
<path d="M213.96 334.84Q210.83 334.84 209 333.02Q207.18 331.19 207.18 327.80L207.18 317.88Q207.18 314.49 209 312.66Q210.83 310.84 213.96 310.84Q217.10 310.84 218.92 312.66Q220.75 314.49 220.75 317.85L220.75 327.80Q220.75 331.19 218.92 333.02Q217.10 334.84 213.96 334.84M213.96 332.25Q215.85 332.25 216.86 331.18Q217.87 330.10 217.87 328.12L217.87 317.56Q217.87 315.58 216.86 314.50Q215.85 313.43 213.96 313.43Q212.11 313.43 211.08 314.50Q210.06 315.58 210.06 317.56L210.06 328.12Q210.06 330.10 211.08 331.18Q212.11 332.25 213.96 332.25" fill="white" fill-opacity="0.9"/>
<path d="M228.65 334.52L225.87 334.52L225.87 311.16L230.12 311.16L233.10 321.27L236.20 311.16L240.46 311.16L240.46 334.52L237.67 334.52L237.67 323.48Q237.67 321.91 237.72 319.88Q237.77 317.85 237.87 315.77Q237.96 313.69 238.09 312.02L234.31 324.09L231.82 324.09L228.20 312.31Q228.46 314.68 228.55 317.50Q228.65 320.31 228.65 323.48" fill="white" fill-opacity="0.9"/>
<path d="M247.85 334.52L245.07 334.52L245.07 311.16L249.32 311.16L252.30 321.27L255.40 311.16L259.66 311.16L259.66 334.52L256.87 334.52L256.87 323.48Q256.87 321.91 256.92 319.88Q256.97 317.85 257.07 315.77Q257.16 313.69 257.29 312.02L253.51 324.09L251.02 324.09L247.40 312.31Q247.66 314.68 247.75 317.50Q247.85 320.31 247.85 323.48" fill="white" fill-opacity="0.9"/>
<path d="M271.56 334.84Q268.30 334.84 266.57 333.03Q264.84 331.22 264.84 328.12L264.84 311.16L267.72 311.16L267.72 328.12Q267.72 330.04 268.67 331.16Q269.61 332.28 271.56 332.28Q273.48 332.28 274.44 331.16Q275.40 330.04 275.40 328.12L275.40 311.16L278.28 311.16L278.28 328.12Q278.28 331.26 276.57 333.05Q274.86 334.84 271.56 334.84" fill="white" fill-opacity="0.9"/>
<path d="M286.83 334.52L284.04 334.52L284.04 311.16L287.88 311.16L295.02 331.16Q294.95 330.36 294.87 329.19Q294.79 328.02 294.75 326.73Q294.70 325.43 294.70 324.28L294.70 311.16L297.48 311.16L297.48 334.52L293.64 334.52L286.54 314.52Q286.60 315.29 286.67 316.46Q286.73 317.62 286.78 318.92Q286.83 320.22 286.83 321.40" fill="white" fill-opacity="0.9"/>
<path d="M316.20 334.52L303.72 334.52L303.72 331.90L308.49 331.90L308.49 313.78L303.72 313.78L303.72 311.16L316.20 311.16L316.20 313.78L311.43 313.78L311.43 331.90L316.20 331.90" fill="white" fill-opacity="0.9"/>
<path d="M330.60 334.52L327.72 334.52L327.72 313.78L321.32 313.78L321.32 311.16L337 311.16L337 313.78L330.60 313.78" fill="white" fill-opacity="0.9"/>
<path d="M349.80 334.52L346.92 334.52L346.92 325.78L339.88 311.16L342.95 311.16L347.50 320.76Q347.88 321.56 348.11 322.12Q348.33 322.68 348.39 322.94Q348.46 322.68 348.70 322.12Q348.94 321.56 349.32 320.76L353.87 311.16L356.84 311.16L349.80 325.78" fill="white" fill-opacity="0.9"/>
<path d="M382.83 334.52L380.04 334.52L380.04 311.16L383.88 311.16L391.02 331.16Q390.95 330.36 390.87 329.19Q390.79 328.02 390.75 326.73Q390.70 325.43 390.70 324.28L390.70 311.16L393.48 311.16L393.48 334.52L389.64 334.52L382.54 314.52Q382.60 315.29 382.67 316.46Q382.73 317.62 382.78 318.92Q382.83 320.22 382.83 321.40" fill="white" fill-opacity="0.9"/>
<path d="M405.96 334.84Q402.83 334.84 401 333.02Q399.18 331.19 399.18 327.80L399.18 317.88Q399.18 314.49 401 312.66Q402.83 310.84 405.96 310.84Q409.10 310.84 410.92 312.66Q412.75 314.49 412.75 317.85L412.75 327.80Q412.75 331.19 410.92 333.02Q409.10 334.84 405.96 334.84M405.96 332.25Q407.85 332.25 408.86 331.18Q409.87 330.10 409.87 328.12L409.87 317.56Q409.87 315.58 408.86 314.50Q407.85 313.43 405.96 313.43Q404.11 313.43 403.08 314.50Q402.06 315.58 402.06 317.56L402.06 328.12Q402.06 330.10 403.08 331.18Q404.11 332.25 405.96 332.25" fill="white" fill-opacity="0.9"/>
<path d="M424.55 334.52L418.51 334.52L418.51 311.16L424.55 311.16Q426.83 311.16 428.47 312.02Q430.12 312.89 431.03 314.46Q431.95 316.02 431.95 318.17L431.95 327.48Q431.95 329.62 431.03 331.21Q430.12 332.79 428.47 333.66Q426.83 334.52 424.55 334.52M421.39 313.72L421.39 331.96L424.55 331.96Q426.67 331.96 427.87 330.78Q429.07 329.59 429.07 327.48L429.07 318.17Q429.07 316.09 427.87 314.90Q426.67 313.72 424.55 313.72" fill="white" fill-opacity="0.9"/>
<path d="M451.40 334.52L437.96 334.52L437.96 311.16L451.40 311.16L451.40 313.78L440.81 313.78L440.81 321.02L450.28 321.02L450.28 323.58L440.81 323.58L440.81 331.90L451.40 331.90" fill="white" fill-opacity="0.9"/>
<path d="M463.69 334.84Q460.30 334.84 458.28 333.05Q456.27 331.26 456.27 328.12L459.15 328.12Q459.15 330.07 460.39 331.18Q461.64 332.28 463.69 332.28Q465.67 332.28 466.86 331.13Q468.04 329.98 468.04 328.12Q468.04 326.71 467.29 325.67Q466.54 324.63 465.13 324.25L461.58 323.26Q459.37 322.62 458.11 320.97Q456.84 319.32 456.84 317.08Q456.84 315.22 457.67 313.82Q458.51 312.41 460.01 311.62Q461.51 310.84 463.47 310.84Q465.45 310.84 466.97 311.62Q468.49 312.41 469.35 313.80Q470.22 315.19 470.22 317.02L467.34 317.02Q467.34 315.42 466.25 314.41Q465.16 313.40 463.47 313.40Q461.77 313.40 460.71 314.41Q459.66 315.42 459.66 317.02Q459.66 318.30 460.35 319.21Q461.03 320.12 462.28 320.47L465.93 321.50Q468.27 322.14 469.56 323.91Q470.86 325.69 470.86 328.12Q470.86 331.19 468.91 333.02Q466.95 334.84 463.69 334.84" fill="white" fill-opacity="0.9"/>
</g>
<path d="M77.30 197.88Q74.90 197.88 73.50 196.54Q72.11 195.19 72.11 192.84L72.11 184.92Q72.11 182.57 73.50 181.22Q74.90 179.88 77.30 179.88Q79.65 179.88 81.04 181.24Q82.43 182.59 82.43 184.92L80.27 184.92Q80.27 183.43 79.49 182.63Q78.71 181.82 77.30 181.82Q75.88 181.82 75.08 182.62Q74.27 183.41 74.27 184.90L74.27 192.84Q74.27 194.33 75.08 195.14Q75.88 195.96 77.30 195.96Q78.71 195.96 79.49 195.14Q80.27 194.33 80.27 192.84L80.27 190.44L76.72 190.44L76.72 188.47L82.43 188.47L82.43 192.84Q82.43 195.17 81.04 196.52Q79.65 197.88 77.30 197.88" fill="white" fill-opacity="0.7"/>
<path d="M91.60 197.88Q89.27 197.88 87.84 196.48Q86.42 195.07 86.42 192.60L86.42 189.48Q86.42 187.01 87.84 185.60Q89.27 184.20 91.60 184.20Q93.16 184.20 94.32 184.82Q95.49 185.45 96.14 186.58Q96.78 187.70 96.78 189.24L96.78 191.59L88.53 191.59L88.53 192.84Q88.53 194.30 89.37 195.16Q90.21 196.01 91.60 196.01Q92.80 196.01 93.58 195.54Q94.36 195.07 94.53 194.28L96.69 194.28Q96.47 195.94 95.08 196.91Q93.69 197.88 91.60 197.88M88.53 189.24L88.53 189.91L94.67 189.91L94.67 189.24Q94.67 187.68 93.87 186.83Q93.06 185.98 91.60 185.98Q90.14 185.98 89.33 186.83Q88.53 187.68 88.53 189.24" fill="white" fill-opacity="0.7"/>
<path d="M111.16 197.64L107.32 197.64Q105.69 197.64 104.70 196.69Q103.72 195.74 103.72 194.16L103.72 186.41L99.93 186.41L99.93 184.44L103.72 184.44L103.72 180.72L105.88 180.72L105.88 184.44L111.28 184.44L111.28 186.41L105.88 186.41L105.88 194.16Q105.88 194.83 106.28 195.25Q106.67 195.67 107.32 195.67L111.16 195.67" fill="white" fill-opacity="0.7"/>
<path d="M134.03 197.88Q132.06 197.88 130.88 196.56Q129.69 195.24 129.69 192.98L129.69 189.12Q129.69 186.84 130.86 185.52Q132.04 184.20 134.03 184.20Q135.52 184.20 136.49 184.94Q137.46 185.69 137.66 186.96L137.68 186.96L137.63 183.96L137.63 180.12L139.79 180.12L139.79 197.64L137.63 197.64L137.63 195.12L137.61 195.12Q137.44 196.42 136.48 197.15Q135.52 197.88 134.03 197.88M134.75 196.01Q136.10 196.01 136.86 195.17Q137.63 194.33 137.63 192.84L137.63 189.24Q137.63 187.75 136.86 186.91Q136.10 186.07 134.75 186.07Q133.38 186.07 132.62 186.78Q131.85 187.49 131.85 189.12L131.85 192.96Q131.85 194.57 132.62 195.29Q133.38 196.01 134.75 196.01" fill="white" fill-opacity="0.7"/>
<path d="M149.20 197.88Q146.87 197.88 145.44 196.48Q144.02 195.07 144.02 192.60L144.02 189.48Q144.02 187.01 145.44 185.60Q146.87 184.20 149.20 184.20Q150.76 184.20 151.92 184.82Q153.09 185.45 153.74 186.58Q154.38 187.70 154.38 189.24L154.38 191.59L146.13 191.59L146.13 192.84Q146.13 194.30 146.97 195.16Q147.81 196.01 149.20 196.01Q150.40 196.01 151.18 195.54Q151.96 195.07 152.13 194.28L154.29 194.28Q154.07 195.94 152.68 196.91Q151.29 197.88 149.20 197.88M146.13 189.24L146.13 189.91L152.27 189.91L152.27 189.24Q152.27 187.68 151.47 186.83Q150.66 185.98 149.20 185.98Q147.74 185.98 146.93 186.83Q146.13 187.68 146.13 189.24" fill="white" fill-opacity="0.7"/>
<path d="M168.76 197.64L164.92 197.64Q163.29 197.64 162.30 196.69Q161.32 195.74 161.32 194.16L161.32 186.41L157.53 186.41L157.53 184.44L161.32 184.44L161.32 180.72L163.48 180.72L163.48 184.44L168.88 184.44L168.88 186.41L163.48 186.41L163.48 194.16Q163.48 194.83 163.88 195.25Q164.27 195.67 164.92 195.67L168.76 195.67" fill="white" fill-opacity="0.7"/>
<path d="M176.85 197.88Q174.81 197.88 173.61 196.74Q172.41 195.60 172.41 193.75Q172.41 192.53 172.96 191.62Q173.51 190.70 174.50 190.19Q175.48 189.67 176.75 189.67L180.83 189.67L180.83 188.64Q180.83 186.07 178.02 186.07Q176.78 186.07 176.01 186.53Q175.24 186.98 175.19 187.80L173.03 187.80Q173.15 186.24 174.48 185.22Q175.82 184.20 178.02 184.20Q180.42 184.20 181.71 185.35Q182.99 186.50 182.99 188.57L182.99 197.64L180.86 197.64L180.86 195.24L180.81 195.24Q180.62 196.46 179.58 197.17Q178.55 197.88 176.85 197.88M177.38 196.06Q178.96 196.06 179.90 195.29Q180.83 194.52 180.83 193.20L180.83 191.35L176.99 191.35Q175.94 191.35 175.28 191.99Q174.62 192.62 174.62 193.68Q174.62 194.78 175.35 195.42Q176.08 196.06 177.38 196.06" fill="white" fill-opacity="0.7"/>
<path d="M198.52 197.64L187.24 197.64L187.24 195.67L191.92 195.67L191.92 186.41L187.72 186.41L187.72 184.44L194.08 184.44L194.08 195.67L198.52 195.67L198.52 197.64M192.76 182.06Q191.97 182.06 191.51 181.66Q191.06 181.25 191.06 180.55Q191.06 179.83 191.51 179.41Q191.97 178.99 192.76 178.99Q193.55 178.99 194.01 179.41Q194.46 179.83 194.46 180.55Q194.46 181.25 194.01 181.66Q193.55 182.06 192.76 182.06" fill="white" fill-opacity="0.7"/>
<path d="M212.80 197.64L208.72 197.64Q206.97 197.64 205.92 196.62Q204.88 195.60 204.88 193.92L204.88 182.09L200.32 182.09L200.32 180.12L207.04 180.12L207.04 193.92Q207.04 194.74 207.50 195.20Q207.95 195.67 208.72 195.67L212.80 195.67" fill="white" fill-opacity="0.7"/>
<path d="M221.20 197.88Q218.87 197.88 217.44 196.48Q216.02 195.07 216.02 192.60L216.02 189.48Q216.02 187.01 217.44 185.60Q218.87 184.20 221.20 184.20Q222.76 184.20 223.92 184.82Q225.09 185.45 225.74 186.58Q226.38 187.70 226.38 189.24L226.38 191.59L218.13 191.59L218.13 192.84Q218.13 194.30 218.97 195.16Q219.81 196.01 221.20 196.01Q222.40 196.01 223.18 195.54Q223.96 195.07 224.13 194.28L226.29 194.28Q226.07 195.94 224.68 196.91Q223.29 197.88 221.20 197.88M218.13 189.24L218.13 189.91L224.27 189.91L224.27 189.24Q224.27 187.68 223.47 186.83Q222.66 185.98 221.20 185.98Q219.74 185.98 218.93 186.83Q218.13 187.68 218.13 189.24" fill="white" fill-opacity="0.7"/>
<path d="M234.83 197.88Q232.86 197.88 231.68 196.56Q230.49 195.24 230.49 192.98L230.49 189.12Q230.49 186.84 231.66 185.52Q232.84 184.20 234.83 184.20Q236.32 184.20 237.29 184.94Q238.26 185.69 238.46 186.96L238.48 186.96L238.43 183.96L238.43 180.12L240.59 180.12L240.59 197.64L238.43 197.64L238.43 195.12L238.41 195.12Q238.24 196.42 237.28 197.15Q236.32 197.88 234.83 197.88M235.55 196.01Q236.90 196.01 237.66 195.17Q238.43 194.33 238.43 192.84L238.43 189.24Q238.43 187.75 237.66 186.91Q236.90 186.07 235.55 186.07Q234.18 186.07 233.42 186.78Q232.65 187.49 232.65 189.12L232.65 192.96Q232.65 194.57 233.42 195.29Q234.18 196.01 235.55 196.01" fill="white" fill-opacity="0.7"/>
<path d="M263.63 197.88Q261.66 197.88 260.48 196.56Q259.29 195.24 259.29 192.98L259.29 189.12Q259.29 186.84 260.46 185.52Q261.64 184.20 263.63 184.20Q265.12 184.20 266.09 184.94Q267.06 185.69 267.26 186.96L267.28 186.96L267.23 183.96L267.23 180.12L269.39 180.12L269.39 197.64L267.23 197.64L267.23 195.12L267.21 195.12Q267.04 196.42 266.08 197.15Q265.12 197.88 263.63 197.88M264.35 196.01Q265.70 196.01 266.46 195.17Q267.23 194.33 267.23 192.84L267.23 189.24Q267.23 187.75 266.46 186.91Q265.70 186.07 264.35 186.07Q262.98 186.07 262.22 186.78Q261.45 187.49 261.45 189.12L261.45 192.96Q261.45 194.57 262.22 195.29Q262.98 196.01 264.35 196.01" fill="white" fill-opacity="0.7"/>
<path d="M277.65 197.88Q275.61 197.88 274.41 196.74Q273.21 195.60 273.21 193.75Q273.21 192.53 273.76 191.62Q274.31 190.70 275.30 190.19Q276.28 189.67 277.55 189.67L281.63 189.67L281.63 188.64Q281.63 186.07 278.82 186.07Q277.58 186.07 276.81 186.53Q276.04 186.98 275.99 187.80L273.83 187.80Q273.95 186.24 275.28 185.22Q276.62 184.20 278.82 184.20Q281.22 184.20 282.51 185.35Q283.79 186.50 283.79 188.57L283.79 197.64L281.66 197.64L281.66 195.24L281.61 195.24Q281.42 196.46 280.38 197.17Q279.35 197.88 277.65 197.88M278.18 196.06Q279.76 196.06 280.70 195.29Q281.63 194.52 281.63 193.20L281.63 191.35L277.79 191.35Q276.74 191.35 276.08 191.99Q275.42 192.62 275.42 193.68Q275.42 194.78 276.15 195.42Q276.88 196.06 278.18 196.06" fill="white" fill-opacity="0.7"/>
<path d="M298.36 197.64L294.52 197.64Q292.89 197.64 291.90 196.69Q290.92 195.74 290.92 194.16L290.92 186.41L287.13 186.41L287.13 184.44L290.92 184.44L290.92 180.72L293.08 180.72L293.08 184.44L298.48 184.44L298.48 186.41L293.08 186.41L293.08 194.16Q293.08 194.83 293.48 195.25Q293.87 195.67 294.52 195.67L298.36 195.67" fill="white" fill-opacity="0.7"/>
<path d="M306.45 197.88Q304.41 197.88 303.21 196.74Q302.01 195.60 302.01 193.75Q302.01 192.53 302.56 191.62Q303.11 190.70 304.10 190.19Q305.08 189.67 306.35 189.67L310.43 189.67L310.43 188.64Q310.43 186.07 307.62 186.07Q306.38 186.07 305.61 186.53Q304.84 186.98 304.79 187.80L302.63 187.80Q302.75 186.24 304.08 185.22Q305.42 184.20 307.62 184.20Q310.02 184.20 311.31 185.35Q312.59 186.50 312.59 188.57L312.59 197.64L310.46 197.64L310.46 195.24L310.41 195.24Q310.22 196.46 309.18 197.17Q308.15 197.88 306.45 197.88M306.98 196.06Q308.56 196.06 309.50 195.29Q310.43 194.52 310.43 193.20L310.43 191.35L306.59 191.35Q305.54 191.35 304.88 191.99Q304.22 192.62 304.22 193.68Q304.22 194.78 304.95 195.42Q305.68 196.06 306.98 196.06" fill="white" fill-opacity="0.7"/>
<path d="M336.40 197.83Q334.02 197.83 332.62 196.44Q331.22 195.05 331.22 192.55L331.22 189.53Q331.22 187.01 332.61 185.63Q334 184.25 336.40 184.25Q338.80 184.25 340.19 185.63Q341.58 187.01 341.58 189.53L341.58 192.55Q341.58 195.05 340.18 196.44Q338.78 197.83 336.40 197.83M336.40 195.91Q337.82 195.91 338.62 195.12Q339.42 194.33 339.42 192.79L339.42 189.29Q339.42 187.75 338.62 186.96Q337.82 186.17 336.40 186.17Q335.01 186.17 334.19 186.96Q333.38 187.75 333.38 189.29L333.38 192.79Q333.38 194.33 334.19 195.12Q335.01 195.91 336.40 195.91" fill="white" fill-opacity="0.7"/>
<path d="M347.97 197.64L345.81 197.64L345.81 184.44L347.97 184.44L347.97 186.96L347.99 186.96Q348.16 185.64 349.07 184.92Q349.98 184.20 351.50 184.20Q353.49 184.20 354.66 185.42Q355.84 186.65 355.84 188.76L355.84 197.64L353.68 197.64L353.68 189.14Q353.68 187.63 352.92 186.83Q352.17 186.02 350.87 186.02Q349.53 186.02 348.75 186.86Q347.97 187.70 347.97 189.24" fill="white" fill-opacity="0.7"/>
<path d="M379.60 197.83Q377.22 197.83 375.82 196.44Q374.42 195.05 374.42 192.55L374.42 189.53Q374.42 187.01 375.81 185.63Q377.20 184.25 379.60 184.25Q382 184.25 383.39 185.63Q384.78 187.01 384.78 189.53L384.78 192.55Q384.78 195.05 383.38 196.44Q381.98 197.83 379.60 197.83M379.60 195.91Q381.02 195.91 381.82 195.12Q382.62 194.33 382.62 192.79L382.62 189.29Q382.62 187.75 381.82 186.96Q381.02 186.17 379.60 186.17Q378.21 186.17 377.39 186.96Q376.58 187.75 376.58 189.29L376.58 192.79Q376.58 194.33 377.39 195.12Q378.21 195.91 379.60 195.91" fill="white" fill-opacity="0.7"/>
<path d="M395.42 197.64L392.58 197.64L388.10 184.44L390.42 184.44L393.30 193.32Q393.57 194.11 393.76 194.84Q393.95 195.58 394.05 195.98Q394.17 195.58 394.34 194.84Q394.50 194.11 394.74 193.32L397.62 184.44L399.90 184.44" fill="white" fill-opacity="0.7"/>
<path d="M408.40 197.88Q406.07 197.88 404.64 196.48Q403.22 195.07 403.22 192.60L403.22 189.48Q403.22 187.01 404.64 185.60Q406.07 184.20 408.40 184.20Q409.96 184.20 411.12 184.82Q412.29 185.45 412.94 186.58Q413.58 187.70 413.58 189.24L413.58 191.59L405.33 191.59L405.33 192.84Q405.33 194.30 406.17 195.16Q407.01 196.01 408.40 196.01Q409.60 196.01 410.38 195.54Q411.16 195.07 411.33 194.28L413.49 194.28Q413.27 195.94 411.88 196.91Q410.49 197.88 408.40 197.88M405.33 189.24L405.33 189.91L411.47 189.91L411.47 189.24Q411.47 187.68 410.67 186.83Q409.86 185.98 408.40 185.98Q406.94 185.98 406.13 186.83Q405.33 187.68 405.33 189.24" fill="white" fill-opacity="0.7"/>
<path d="M420.45 197.64L418.29 197.64L418.29 184.44L420.45 184.44L420.45 186.96L420.50 186.96Q420.66 185.69 421.58 184.94Q422.49 184.20 424.02 184.20Q426.09 184.20 427.20 185.44Q428.32 186.67 428.32 188.95L428.32 190.08L426.16 190.08L426.16 188.95Q426.16 186.07 423.35 186.07Q421.94 186.07 421.19 186.89Q420.45 187.70 420.45 189.24" fill="white" fill-opacity="0.7"/>
<path d="M457.36 197.64L446.56 197.64L446.56 195.67L451.31 195.67L451.31 181.99L446.56 185.54L446.56 183.07L450.52 180.12L453.47 180.12L453.47 195.67L457.36 195.67" fill="white" fill-opacity="0.7"/>
<path d="M471.45 197.64L460.86 197.64L460.86 195.65L466.70 189.41Q467.97 188.06 468.50 187.01Q469.02 185.95 469.02 184.94Q469.02 183.50 468.20 182.65Q467.37 181.80 465.95 181.80Q464.49 181.80 463.64 182.68Q462.78 183.55 462.78 185.04L460.62 185.04Q460.70 182.66 462.14 181.27Q463.58 179.88 465.95 179.88Q468.38 179.88 469.80 181.25Q471.23 182.62 471.23 184.97Q471.23 186.22 470.55 187.61Q469.86 189 468.21 190.73L463.48 195.67L471.45 195.67" fill="white" fill-opacity="0.7"/>
<path d="M480.40 197.88Q477.98 197.88 476.55 196.48Q475.12 195.07 475.12 192.72L475.12 185.04Q475.12 182.69 476.55 181.28Q477.98 179.88 480.40 179.88Q482.82 179.88 484.25 181.28Q485.68 182.69 485.68 185.04L485.68 192.72Q485.68 194.28 485.03 195.44Q484.38 196.61 483.20 197.24Q482.01 197.88 480.40 197.88M480.40 196.03Q481.84 196.03 482.72 195.11Q483.59 194.18 483.59 192.72L483.59 185.04Q483.59 183.58 482.72 182.65Q481.84 181.73 480.40 181.73Q478.96 181.73 478.08 182.65Q477.21 183.58 477.21 185.04L477.21 192.72Q477.21 194.18 478.08 195.11Q478.96 196.03 480.40 196.03M480.40 190.20Q479.75 190.20 479.36 189.84Q478.96 189.48 478.96 188.81Q478.96 188.16 479.36 187.81Q479.75 187.46 480.40 187.46Q481.05 187.46 481.44 187.81Q481.84 188.16 481.84 188.81Q481.84 189.48 481.44 189.84Q481.05 190.20 480.40 190.20" fill="white" fill-opacity="0.7"/>
<path d="M494.87 201.48L492.64 201.48L493.96 194.14L496.55 194.14" fill="white" fill-opacity="0.7"/>
<path d="M509.20 197.88Q506.78 197.88 505.35 196.48Q503.92 195.07 503.92 192.72L503.92 185.04Q503.92 182.69 505.35 181.28Q506.78 179.88 509.20 179.88Q511.62 179.88 513.05 181.28Q514.48 182.69 514.48 185.04L514.48 192.72Q514.48 194.28 513.83 195.44Q513.18 196.61 512 197.24Q510.81 197.88 509.20 197.88M509.20 196.03Q510.64 196.03 511.52 195.11Q512.39 194.18 512.39 192.72L512.39 185.04Q512.39 183.58 511.52 182.65Q510.64 181.73 509.20 181.73Q507.76 181.73 506.88 182.65Q506.01 183.58 506.01 185.04L506.01 192.72Q506.01 194.18 506.88 195.11Q507.76 196.03 509.20 196.03M509.20 190.20Q508.55 190.20 508.16 189.84Q507.76 189.48 507.76 188.81Q507.76 188.16 508.16 187.81Q508.55 187.46 509.20 187.46Q509.85 187.46 510.24 187.81Q510.64 188.16 510.64 188.81Q510.64 189.48 510.24 189.84Q509.85 190.20 509.20 190.20" fill="white" fill-opacity="0.7"/>
<path d="M523.60 197.88Q521.18 197.88 519.75 196.48Q518.32 195.07 518.32 192.72L518.32 185.04Q518.32 182.69 519.75 181.28Q521.18 179.88 523.60 179.88Q526.02 179.88 527.45 181.28Q528.88 182.69 528.88 185.04L528.88 192.72Q528.88 194.28 528.23 195.44Q527.58 196.61 526.40 197.24Q525.21 197.88 523.60 197.88M523.60 196.03Q525.04 196.03 525.92 195.11Q526.79 194.18 526.79 192.72L526.79 185.04Q526.79 183.58 525.92 182.65Q525.04 181.73 523.60 181.73Q522.16 181.73 521.28 182.65Q520.41 183.58 520.41 185.04L520.41 192.72Q520.41 194.18 521.28 195.11Q522.16 196.03 523.60 196.03M523.60 190.20Q522.95 190.20 522.56 189.84Q522.16 189.48 522.16 188.81Q522.16 188.16 522.56 187.81Q522.95 187.46 523.60 187.46Q524.25 187.46 524.64 187.81Q525.04 188.16 525.04 188.81Q525.04 189.48 524.64 189.84Q524.25 190.20 523.60 190.20" fill="white" fill-opacity="0.7"/>
<path d="M538 197.88Q535.58 197.88 534.15 196.48Q532.72 195.07 532.72 192.72L532.72 185.04Q532.72 182.69 534.15 181.28Q535.58 179.88 538 179.88Q540.42 179.88 541.85 181.28Q543.28 182.69 543.28 185.04L543.28 192.72Q543.28 194.28 542.63 195.44Q541.98 196.61 540.80 197.24Q539.61 197.88 538 197.88M538 196.03Q539.44 196.03 540.32 195.11Q541.19 194.18 541.19 192.72L541.19 185.04Q541.19 183.58 540.32 182.65Q539.44 181.73 538 181.73Q536.56 181.73 535.68 182.65Q534.81 183.58 534.81 185.04L534.81 192.72Q534.81 194.18 535.68 195.11Q536.56 196.03 538 196.03M538 190.20Q537.35 190.20 536.96 189.84Q536.56 189.48 536.56 188.81Q536.56 188.16 536.96 187.81Q537.35 187.46 538 187.46Q538.65 187.46 539.04 187.81Q539.44 188.16 539.44 188.81Q539.44 189.48 539.04 189.84Q538.65 190.20 538 190.20" fill="white" fill-opacity="0.7"/>
<path d="M567.33 197.83L566.27 197.83Q564.06 197.83 562.85 196.84Q561.64 195.84 561.64 194.02L563.80 194.02Q563.80 194.93 564.45 195.44Q565.10 195.96 566.27 195.96L567.33 195.96Q568.53 195.96 569.19 195.43Q569.85 194.90 569.85 193.94Q569.85 192.24 568.29 192.02L564.64 191.50Q563.30 191.30 562.55 190.38Q561.81 189.46 561.81 187.94Q561.81 186.22 563 185.23Q564.18 184.25 566.27 184.25L567.33 184.25Q569.25 184.25 570.46 185.20Q571.67 186.14 571.77 187.68L569.58 187.68Q569.54 186.98 568.92 186.53Q568.31 186.07 567.33 186.07L566.27 186.07Q565.17 186.07 564.54 186.58Q563.92 187.08 563.92 187.94Q563.92 189.34 565.19 189.53L568.60 190.01Q571.96 190.49 571.96 193.94Q571.96 195.79 570.75 196.81Q569.54 197.83 567.33 197.83" fill="white" fill-opacity="0.7"/>
<path d="M581.39 197.88Q578.99 197.88 577.55 196.54Q576.11 195.19 576.11 192.84L576.11 189.24Q576.11 186.89 577.55 185.54Q578.99 184.20 581.39 184.20Q583.67 184.20 585.08 185.42Q586.48 186.65 586.55 188.76L584.39 188.76Q584.32 187.49 583.53 186.80Q582.74 186.12 581.39 186.12Q579.98 186.12 579.12 186.92Q578.27 187.73 578.27 189.22L578.27 192.84Q578.27 194.33 579.12 195.14Q579.98 195.96 581.39 195.96Q582.74 195.96 583.53 195.26Q584.32 194.57 584.39 193.32L586.55 193.32Q586.48 195.43 585.08 196.66Q583.67 197.88 581.39 197.88" fill="white" fill-opacity="0.7"/>
<path d="M592.77 197.64L590.61 197.64L590.61 180.12L592.77 180.12L592.77 186.96L592.79 186.96Q592.96 185.64 593.87 184.92Q594.78 184.20 596.30 184.20Q598.29 184.20 599.46 185.42Q600.64 186.65 600.64 188.76L600.64 197.64L598.48 197.64L598.48 189.12Q598.48 187.63 597.72 186.83Q596.97 186.02 595.67 186.02Q594.33 186.02 593.55 186.86Q592.77 187.70 592.77 189.24" fill="white" fill-opacity="0.7"/>
<path d="M610 197.83Q607.62 197.83 606.22 196.44Q604.82 195.05 604.82 192.55L604.82 189.53Q604.82 187.01 606.21 185.63Q607.60 184.25 610 184.25Q612.40 184.25 613.79 185.63Q615.18 187.01 615.18 189.53L615.18 192.55Q615.18 195.05 613.78 196.44Q612.38 197.83 610 197.83M610 195.91Q611.42 195.91 612.22 195.12Q613.02 194.33 613.02 192.79L613.02 189.29Q613.02 187.75 612.22 186.96Q611.42 186.17 610 186.17Q608.61 186.17 607.79 186.96Q606.98 187.75 606.98 189.29L606.98 192.79Q606.98 194.33 607.79 195.12Q608.61 195.91 610 195.91" fill="white" fill-opacity="0.7"/>
<path d="M624.40 197.83Q622.02 197.83 620.62 196.44Q619.22 195.05 619.22 192.55L619.22 189.53Q619.22 187.01 620.61 185.63Q622 184.25 624.40 184.25Q626.80 184.25 628.19 185.63Q629.58 187.01 629.58 189.53L629.58 192.55Q629.58 195.05 628.18 196.44Q626.78 197.83 624.40 197.83M624.40 195.91Q625.82 195.91 626.62 195.12Q627.42 194.33 627.42 192.79L627.42 189.29Q627.42 187.75 626.62 186.96Q625.82 186.17 624.40 186.17Q623.01 186.17 622.19 186.96Q621.38 187.75 621.38 189.29L621.38 192.79Q621.38 194.33 622.19 195.12Q623.01 195.91 624.40 195.91" fill="white" fill-opacity="0.7"/>
<path d="M644.80 197.64L640.72 197.64Q638.97 197.64 637.92 196.62Q636.88 195.60 636.88 193.92L636.88 182.09L632.32 182.09L632.32 180.12L639.04 180.12L639.04 193.92Q639.04 194.74 639.50 195.20Q639.95 195.67 640.72 195.67L644.80 195.67" fill="white" fill-opacity="0.7"/>
<path d="M653.73 197.83L652.67 197.83Q650.46 197.83 649.25 196.84Q648.04 195.84 648.04 194.02L650.20 194.02Q650.20 194.93 650.85 195.44Q651.50 195.96 652.67 195.96L653.73 195.96Q654.93 195.96 655.59 195.43Q656.25 194.90 656.25 193.94Q656.25 192.24 654.69 192.02L651.04 191.50Q649.70 191.30 648.95 190.38Q648.21 189.46 648.21 187.94Q648.21 186.22 649.40 185.23Q650.58 184.25 652.67 184.25L653.73 184.25Q655.65 184.25 656.86 185.20Q658.07 186.14 658.17 187.68L655.98 187.68Q655.94 186.98 655.32 186.53Q654.71 186.07 653.73 186.07L652.67 186.07Q651.57 186.07 650.94 186.58Q650.32 187.08 650.32 187.94Q650.32 189.34 651.59 189.53L655 190.01Q658.36 190.49 658.36 193.94Q658.36 195.79 657.15 196.81Q655.94 197.83 653.73 197.83" fill="white" fill-opacity="0.7"/>
<path d="M680.85 197.88Q678.81 197.88 677.61 196.74Q676.41 195.60 676.41 193.75Q676.41 192.53 676.96 191.62Q677.51 190.70 678.50 190.19Q679.48 189.67 680.75 189.67L684.83 189.67L684.83 188.64Q684.83 186.07 682.02 186.07Q680.78 186.07 680.01 186.53Q679.24 186.98 679.19 187.80L677.03 187.80Q677.15 186.24 678.48 185.22Q679.82 184.20 682.02 184.20Q684.42 184.20 685.71 185.35Q686.99 186.50 686.99 188.57L686.99 197.64L684.86 197.64L684.86 195.24L684.81 195.24Q684.62 196.46 683.58 197.17Q682.55 197.88 680.85 197.88M681.38 196.06Q682.96 196.06 683.90 195.29Q684.83 194.52 684.83 193.20L684.83 191.35L680.99 191.35Q679.94 191.35 679.28 191.99Q678.62 192.62 678.62 193.68Q678.62 194.78 679.35 195.42Q680.08 196.06 681.38 196.06" fill="white" fill-opacity="0.7"/>
<path d="M693.57 197.64L691.41 197.64L691.41 184.44L693.57 184.44L693.57 186.96L693.59 186.96Q693.76 185.64 694.67 184.92Q695.58 184.20 697.10 184.20Q699.09 184.20 700.26 185.42Q701.44 186.65 701.44 188.76L701.44 197.64L699.28 197.64L699.28 189.14Q699.28 187.63 698.52 186.83Q697.77 186.02 696.47 186.02Q695.13 186.02 694.35 186.86Q693.57 187.70 693.57 189.24" fill="white" fill-opacity="0.7"/>
<path d="M710.03 197.88Q708.06 197.88 706.88 196.56Q705.69 195.24 705.69 192.98L705.69 189.12Q705.69 186.84 706.86 185.52Q708.04 184.20 710.03 184.20Q711.52 184.20 712.49 184.94Q713.46 185.69 713.66 186.96L713.68 186.96L713.63 183.96L713.63 180.12L715.79 180.12L715.79 197.64L713.63 197.64L713.63 195.12L713.61 195.12Q713.44 196.42 712.48 197.15Q711.52 197.88 710.03 197.88M710.75 196.01Q712.10 196.01 712.86 195.17Q713.63 194.33 713.63 192.84L713.63 189.24Q713.63 187.75 712.86 186.91Q712.10 186.07 710.75 186.07Q709.38 186.07 708.62 186.78Q707.85 187.49 707.85 189.12L707.85 192.96Q707.85 194.57 708.62 195.29Q709.38 196.01 710.75 196.01" fill="white" fill-opacity="0.7"/>
<path d="M745.36 197.64L734.56 197.64L734.56 195.67L739.31 195.67L739.31 181.99L734.56 185.54L734.56 183.07L738.52 180.12L741.47 180.12L741.47 195.67L745.36 195.67" fill="white" fill-opacity="0.7"/>
<path d="M754 197.88Q752.34 197.88 751.07 197.23Q749.80 196.58 749.09 195.42Q748.38 194.26 748.38 192.74Q748.38 191.09 749.33 189.89Q750.28 188.69 751.86 188.42L751.86 188.35Q750.50 188.04 749.68 186.97Q748.86 185.90 748.86 184.51Q748.86 183.14 749.51 182.10Q750.16 181.06 751.32 180.47Q752.49 179.88 754 179.88Q755.54 179.88 756.69 180.47Q757.84 181.06 758.49 182.10Q759.14 183.14 759.14 184.51Q759.14 185.90 758.32 186.97Q757.50 188.04 756.14 188.35L756.14 188.42Q757.72 188.69 758.67 189.89Q759.62 191.09 759.62 192.74Q759.62 194.26 758.91 195.42Q758.20 196.58 756.94 197.23Q755.68 197.88 754 197.88M754 187.51Q755.34 187.51 756.16 186.72Q756.98 185.93 756.98 184.66Q756.98 183.38 756.16 182.59Q755.34 181.80 754 181.80Q752.68 181.80 751.85 182.59Q751.02 183.38 751.02 184.66Q751.02 185.93 751.85 186.72Q752.68 187.51 754 187.51M754 195.94Q755.54 195.94 756.50 195.04Q757.46 194.14 757.46 192.70Q757.46 191.23 756.50 190.33Q755.54 189.43 754 189.43Q752.46 189.43 751.50 190.33Q750.54 191.23 750.54 192.70Q750.54 194.14 751.50 195.04Q752.46 195.94 754 195.94" fill="white" fill-opacity="0.7"/>
<path d="M768.47 201.48L766.24 201.48L767.56 194.14L770.15 194.14" fill="white" fill-opacity="0.7"/>
<path d="M782.66 197.88Q780.23 197.88 778.82 196.52Q777.40 195.17 777.40 192.84L779.56 192.84Q779.56 194.28 780.40 195.12Q781.24 195.96 782.68 195.96Q784.12 195.96 784.96 195.12Q785.80 194.28 785.80 192.84L785.80 191.76Q785.80 190.32 784.98 189.48Q784.17 188.64 782.78 188.64L778 188.64L778 180.12L787.34 180.12L787.34 182.09L780.02 182.09L780.06 186.67L782.90 186.67Q785.32 186.67 786.64 188Q787.96 189.34 787.96 191.76L787.96 192.84Q787.96 195.17 786.53 196.52Q785.10 197.88 782.66 197.88" fill="white" fill-opacity="0.7"/>
<path d="M797.20 197.88Q794.78 197.88 793.35 196.48Q791.92 195.07 791.92 192.72L791.92 185.04Q791.92 182.69 793.35 181.28Q794.78 179.88 797.20 179.88Q799.62 179.88 801.05 181.28Q802.48 182.69 802.48 185.04L802.48 192.72Q802.48 194.28 801.83 195.44Q801.18 196.61 800 197.24Q798.81 197.88 797.20 197.88M797.20 196.03Q798.64 196.03 799.52 195.11Q800.39 194.18 800.39 192.72L800.39 185.04Q800.39 183.58 799.52 182.65Q798.64 181.73 797.20 181.73Q795.76 181.73 794.88 182.65Q794.01 183.58 794.01 185.04L794.01 192.72Q794.01 194.18 794.88 195.11Q795.76 196.03 797.20 196.03M797.20 190.20Q796.55 190.20 796.16 189.84Q795.76 189.48 795.76 188.81Q795.76 188.16 796.16 187.81Q796.55 187.46 797.20 187.46Q797.85 187.46 798.24 187.81Q798.64 188.16 798.64 188.81Q798.64 189.48 798.24 189.84Q797.85 190.20 797.20 190.20" fill="white" fill-opacity="0.7"/>
<path d="M811.60 197.88Q809.18 197.88 807.75 196.48Q806.32 195.07 806.32 192.72L806.32 185.04Q806.32 182.69 807.75 181.28Q809.18 179.88 811.60 179.88Q814.02 179.88 815.45 181.28Q816.88 182.69 816.88 185.04L816.88 192.72Q816.88 194.28 816.23 195.44Q815.58 196.61 814.40 197.24Q813.21 197.88 811.60 197.88M811.60 196.03Q813.04 196.03 813.92 195.11Q814.79 194.18 814.79 192.72L814.79 185.04Q814.79 183.58 813.92 182.65Q813.04 181.73 811.60 181.73Q810.16 181.73 809.28 182.65Q808.41 183.58 808.41 185.04L808.41 192.72Q808.41 194.18 809.28 195.11Q810.16 196.03 811.60 196.03M811.60 190.20Q810.95 190.20 810.56 189.84Q810.16 189.48 810.16 188.81Q810.16 188.16 810.56 187.81Q810.95 187.46 811.60 187.46Q812.25 187.46 812.64 187.81Q813.04 188.16 813.04 188.81Q813.04 189.48 812.64 189.84Q812.25 190.20 811.60 190.20" fill="white" fill-opacity="0.7"/>
<path d="M839.63 197.88Q837.66 197.88 836.48 196.56Q835.29 195.24 835.29 192.98L835.29 189.12Q835.29 186.84 836.46 185.52Q837.64 184.20 839.63 184.20Q841.12 184.20 842.09 184.94Q843.06 185.69 843.26 186.96L843.28 186.96L843.23 183.96L843.23 180.12L845.39 180.12L845.39 197.64L843.23 197.64L843.23 195.12L843.21 195.12Q843.04 196.42 842.08 197.15Q841.12 197.88 839.63 197.88M840.35 196.01Q841.70 196.01 842.46 195.17Q843.23 194.33 843.23 192.84L843.23 189.24Q843.23 187.75 842.46 186.91Q841.70 186.07 840.35 186.07Q838.98 186.07 838.22 186.78Q837.45 187.49 837.45 189.12L837.45 192.96Q837.45 194.57 838.22 195.29Q838.98 196.01 840.35 196.01" fill="white" fill-opacity="0.7"/>
<path d="M860.92 197.64L849.64 197.64L849.64 195.67L854.32 195.67L854.32 186.41L850.12 186.41L850.12 184.44L856.48 184.44L856.48 195.67L860.92 195.67L860.92 197.64M855.16 182.06Q854.37 182.06 853.91 181.66Q853.46 181.25 853.46 180.55Q853.46 179.83 853.91 179.41Q854.37 178.99 855.16 178.99Q855.95 178.99 856.41 179.41Q856.86 179.83 856.86 180.55Q856.86 181.25 856.41 181.66Q855.95 182.06 855.16 182.06" fill="white" fill-opacity="0.7"/>
<path d="M869.73 197.83L868.67 197.83Q866.46 197.83 865.25 196.84Q864.04 195.84 864.04 194.02L866.20 194.02Q866.20 194.93 866.85 195.44Q867.50 195.96 868.67 195.96L869.73 195.96Q870.93 195.96 871.59 195.43Q872.25 194.90 872.25 193.94Q872.25 192.24 870.69 192.02L867.04 191.50Q865.70 191.30 864.95 190.38Q864.21 189.46 864.21 187.94Q864.21 186.22 865.40 185.23Q866.58 184.25 868.67 184.25L869.73 184.25Q871.65 184.25 872.86 185.20Q874.07 186.14 874.17 187.68L871.98 187.68Q871.94 186.98 871.32 186.53Q870.71 186.07 869.73 186.07L868.67 186.07Q867.57 186.07 866.94 186.58Q866.32 187.08 866.32 187.94Q866.32 189.34 867.59 189.53L871 190.01Q874.36 190.49 874.36 193.94Q874.36 195.79 873.15 196.81Q871.94 197.83 869.73 197.83" fill="white" fill-opacity="0.7"/>
<path d="M888.76 197.64L884.92 197.64Q883.29 197.64 882.30 196.69Q881.32 195.74 881.32 194.16L881.32 186.41L877.53 186.41L877.53 184.44L881.32 184.44L881.32 180.72L883.48 180.72L883.48 184.44L888.88 184.44L888.88 186.41L883.48 186.41L883.48 194.16Q883.48 194.83 883.88 195.25Q884.27 195.67 884.92 195.67L888.76 195.67" fill="white" fill-opacity="0.7"/>
<path d="M895.65 197.64L893.49 197.64L893.49 184.44L895.65 184.44L895.65 186.96L895.70 186.96Q895.86 185.69 896.78 184.94Q897.69 184.20 899.22 184.20Q901.29 184.20 902.40 185.44Q903.52 186.67 903.52 188.95L903.52 190.08L901.36 190.08L901.36 188.95Q901.36 186.07 898.55 186.07Q897.14 186.07 896.39 186.89Q895.65 187.70 895.65 189.24" fill="white" fill-opacity="0.7"/>
<path d="M918.52 197.64L907.24 197.64L907.24 195.67L911.92 195.67L911.92 186.41L907.72 186.41L907.72 184.44L914.08 184.44L914.08 195.67L918.52 195.67L918.52 197.64M912.76 182.06Q911.97 182.06 911.51 181.66Q911.06 181.25 911.06 180.55Q911.06 179.83 911.51 179.41Q911.97 178.99 912.76 178.99Q913.55 178.99 914.01 179.41Q914.46 179.83 914.46 180.55Q914.46 181.25 914.01 181.66Q913.55 182.06 912.76 182.06" fill="white" fill-opacity="0.7"/>
<path d="M926.99 197.88Q924.59 197.88 923.15 196.54Q921.71 195.19 921.71 192.84L921.71 189.24Q921.71 186.89 923.15 185.54Q924.59 184.20 926.99 184.20Q929.27 184.20 930.68 185.42Q932.08 186.65 932.15 188.76L929.99 188.76Q929.92 187.49 929.13 186.80Q928.34 186.12 926.99 186.12Q925.58 186.12 924.72 186.92Q923.87 187.73 923.87 189.22L923.87 192.84Q923.87 194.33 924.72 195.14Q925.58 195.96 926.99 195.96Q928.34 195.96 929.13 195.26Q929.92 194.57 929.99 193.32L932.15 193.32Q932.08 195.43 930.68 196.66Q929.27 197.88 926.99 197.88" fill="white" fill-opacity="0.7"/>
<path d="M946.36 197.64L942.52 197.64Q940.89 197.64 939.90 196.69Q938.92 195.74 938.92 194.16L938.92 186.41L935.13 186.41L935.13 184.44L938.92 184.44L938.92 180.72L941.08 180.72L941.08 184.44L946.48 184.44L946.48 186.41L941.08 186.41L941.08 194.16Q941.08 194.83 941.48 195.25Q941.87 195.67 942.52 195.67L946.36 195.67" fill="white" fill-opacity="0.7"/>
<path d="M956.13 197.83L955.07 197.83Q952.86 197.83 951.65 196.84Q950.44 195.84 950.44 194.02L952.60 194.02Q952.60 194.93 953.25 195.44Q953.90 195.96 955.07 195.96L956.13 195.96Q957.33 195.96 957.99 195.43Q958.65 194.90 958.65 193.94Q958.65 192.24 957.09 192.02L953.44 191.50Q952.10 191.30 951.35 190.38Q950.61 189.46 950.61 187.94Q950.61 186.22 951.80 185.23Q952.98 184.25 955.07 184.25L956.13 184.25Q958.05 184.25 959.26 185.20Q960.47 186.14 960.57 187.68L958.38 187.68Q958.34 186.98 957.72 186.53Q957.11 186.07 956.13 186.07L955.07 186.07Q953.97 186.07 953.34 186.58Q952.72 187.08 952.72 187.94Q952.72 189.34 953.99 189.53L957.40 190.01Q960.76 190.49 960.76 193.94Q960.76 195.79 959.55 196.81Q958.34 197.83 956.13 197.83" fill="white" fill-opacity="0.7"/>
<path d="M990.52 197.64L979.24 197.64L979.24 195.67L983.92 195.67L983.92 186.41L979.72 186.41L979.72 184.44L986.08 184.44L986.08 195.67L990.52 195.67L990.52 197.64M984.76 182.06Q983.97 182.06 983.51 181.66Q983.06 181.25 983.06 180.55Q983.06 179.83 983.51 179.41Q983.97 178.99 984.76 178.99Q985.55 178.99 986.01 179.41Q986.46 179.83 986.46 180.55Q986.46 181.25 986.01 181.66Q985.55 182.06 984.76 182.06" fill="white" fill-opacity="0.7"/>
<path d="M995.97 197.64L993.81 197.64L993.81 184.44L995.97 184.44L995.97 186.96L995.99 186.96Q996.16 185.64 997.07 184.92Q997.98 184.20 999.50 184.20Q1001.49 184.20 1002.66 185.42Q1003.84 186.65 1003.84 188.76L1003.84 197.64L1001.68 197.64L1001.68 189.14Q1001.68 187.63 1000.92 186.83Q1000.17 186.02 998.87 186.02Q997.53 186.02 996.75 186.86Q995.97 187.70 995.97 189.24" fill="white" fill-opacity="0.7"/>
<path d="M1032.76 197.64L1028.92 197.64Q1027.29 197.64 1026.30 196.69Q1025.32 195.74 1025.32 194.16L1025.32 186.41L1021.53 186.41L1021.53 184.44L1025.32 184.44L1025.32 180.72L1027.48 180.72L1027.48 184.44L1032.88 184.44L1032.88 186.41L1027.48 186.41L1027.48 194.16Q1027.48 194.83 1027.88 195.25Q1028.27 195.67 1028.92 195.67L1032.76 195.67" fill="white" fill-opacity="0.7"/>
<path d="M1039.17 197.64L1037.01 197.64L1037.01 180.12L1039.17 180.12L1039.17 186.96L1039.19 186.96Q1039.36 185.64 1040.27 184.92Q1041.18 184.20 1042.70 184.20Q1044.69 184.20 1045.86 185.42Q1047.04 186.65 1047.04 188.76L1047.04 197.64L1044.88 197.64L1044.88 189.12Q1044.88 187.63 1044.12 186.83Q1043.37 186.02 1042.07 186.02Q1040.73 186.02 1039.95 186.86Q1039.17 187.70 1039.17 189.24" fill="white" fill-opacity="0.7"/>
<path d="M1056.40 197.88Q1054.07 197.88 1052.64 196.48Q1051.22 195.07 1051.22 192.60L1051.22 189.48Q1051.22 187.01 1052.64 185.60Q1054.07 184.20 1056.40 184.20Q1057.96 184.20 1059.12 184.82Q1060.29 185.45 1060.94 186.58Q1061.58 187.70 1061.58 189.24L1061.58 191.59L1053.33 191.59L1053.33 192.84Q1053.33 194.30 1054.17 195.16Q1055.01 196.01 1056.40 196.01Q1057.60 196.01 1058.38 195.54Q1059.16 195.07 1059.33 194.28L1061.49 194.28Q1061.27 195.94 1059.88 196.91Q1058.49 197.88 1056.40 197.88M1053.33 189.24L1053.33 189.91L1059.47 189.91L1059.47 189.24Q1059.47 187.68 1058.67 186.83Q1057.86 185.98 1056.40 185.98Q1054.94 185.98 1054.13 186.83Q1053.33 187.68 1053.33 189.24" fill="white" fill-opacity="0.7"/>
<path d="M1085.20 197.88Q1082.75 197.88 1081.46 196.52Q1080.16 195.17 1080.16 192.84L1080.16 180.12L1082.32 180.12L1082.32 192.84Q1082.32 194.28 1083.03 195.12Q1083.74 195.96 1085.20 195.96Q1086.64 195.96 1087.36 195.12Q1088.08 194.28 1088.08 192.84L1088.08 180.12L1090.24 180.12L1090.24 192.84Q1090.24 195.19 1088.96 196.54Q1087.67 197.88 1085.20 197.88" fill="white" fill-opacity="0.7"/>
<path d="M1099.60 197.88Q1098.71 197.88 1098.17 197.35Q1097.63 196.82 1097.63 195.98Q1097.63 195.10 1098.17 194.54Q1098.71 193.99 1099.60 193.99Q1100.49 193.99 1101.03 194.54Q1101.57 195.10 1101.57 195.98Q1101.57 196.82 1101.03 197.35Q1100.49 197.88 1099.60 197.88" fill="white" fill-opacity="0.7"/>
<path d="M1114.10 197.88Q1111.55 197.88 1110.04 196.54Q1108.53 195.19 1108.53 192.84L1110.69 192.84Q1110.69 194.30 1111.62 195.13Q1112.56 195.96 1114.10 195.96Q1115.58 195.96 1116.47 195.10Q1117.36 194.23 1117.36 192.84Q1117.36 191.78 1116.80 191Q1116.23 190.22 1115.18 189.94L1112.51 189.19Q1110.86 188.71 1109.91 187.48Q1108.96 186.24 1108.96 184.56Q1108.96 183.17 1109.58 182.11Q1110.21 181.06 1111.34 180.47Q1112.46 179.88 1113.93 179.88Q1115.42 179.88 1116.56 180.47Q1117.70 181.06 1118.34 182.10Q1118.99 183.14 1118.99 184.51L1116.83 184.51Q1116.83 183.31 1116.02 182.56Q1115.20 181.80 1113.93 181.80Q1112.66 181.80 1111.86 182.56Q1111.07 183.31 1111.07 184.51Q1111.07 185.47 1111.59 186.16Q1112.10 186.84 1113.04 187.10L1115.78 187.87Q1117.53 188.35 1118.50 189.68Q1119.47 191.02 1119.47 192.84Q1119.47 195.14 1118.01 196.51Q1116.54 197.88 1114.10 197.88" fill="white" fill-opacity="0.7"/>
<path d="M91.18 137.02Q80.82 137.02 74.67 131.60Q68.53 126.17 68.53 116.67L78.03 116.67Q78.03 122.24 81.58 125.40Q85.14 128.57 91.18 128.57Q96.94 128.57 100.35 125.36Q103.76 122.14 103.76 116.76Q103.76 112.73 101.55 109.71Q99.34 106.68 95.31 105.63L84.94 102.84Q78.13 100.92 74.14 95.88Q70.16 90.84 70.16 83.93Q70.16 78.27 72.70 74Q75.25 69.72 79.86 67.37Q84.46 65.02 90.51 65.02Q96.66 65.02 101.31 67.37Q105.97 69.72 108.56 73.95Q111.15 78.17 111.15 83.74L101.74 83.74Q101.74 79.13 98.62 76.25Q95.50 73.37 90.51 73.37Q85.52 73.37 82.50 76.25Q79.47 79.13 79.47 83.74Q79.47 87.48 81.49 90.03Q83.50 92.57 87.15 93.63L97.81 96.51Q105.01 98.43 109.04 103.85Q113.07 109.28 113.07 116.76Q113.07 122.91 110.38 127.47Q107.70 132.03 102.75 134.52Q97.81 137.02 91.18 137.02M149.17 137.02Q139.47 137.02 133.76 131.60Q128.05 126.17 128.05 116.67L128.05 85.28Q128.05 75.87 133.76 70.44Q139.47 65.02 149.17 65.02Q158.77 65.02 164.48 70.49Q170.19 75.96 170.19 85.28L160.69 85.28Q160.69 79.61 157.62 76.54Q154.54 73.47 149.17 73.47Q143.70 73.47 140.62 76.54Q137.55 79.61 137.55 85.28L137.55 116.67Q137.55 122.43 140.62 125.50Q143.70 128.57 149.17 128.57Q154.54 128.57 157.62 125.50Q160.69 122.43 160.69 116.67L170.19 116.67Q170.19 126.08 164.48 131.55Q158.77 137.02 149.17 137.02M195.25 136.06L185.74 136.06L185.74 65.98L195.25 65.98L195.25 95.55L216.75 95.55L216.75 65.98L226.26 65.98L226.26 136.06L216.75 136.06L216.75 104.19L195.25 104.19L195.25 136.06M263.60 137.02Q254 137.02 248.43 131.45Q242.86 125.88 242.86 115.71L242.86 86.24Q242.86 76.16 248.43 70.59Q254 65.02 263.60 65.02Q273.20 65.02 278.77 70.54Q284.34 76.06 284.34 86.24L284.34 115.71Q284.34 125.88 278.77 131.45Q273.20 137.02 263.60 137.02M263.60 128.57Q268.98 128.57 271.90 125.50Q274.83 122.43 274.83 116.67L274.83 85.28Q274.83 79.61 271.95 76.54Q269.07 73.47 263.60 73.47Q258.13 73.47 255.25 76.54Q252.37 79.61 252.37 85.28L252.37 116.67Q252.37 122.43 255.30 125.50Q258.22 128.57 263.60 128.57M321.20 137.02Q311.60 137.02 306.03 131.45Q300.46 125.88 300.46 115.71L300.46 86.24Q300.46 76.16 306.03 70.59Q311.60 65.02 321.20 65.02Q330.80 65.02 336.37 70.54Q341.94 76.06 341.94 86.24L341.94 115.71Q341.94 125.88 336.37 131.45Q330.80 137.02 321.20 137.02M321.20 128.57Q326.58 128.57 329.50 125.50Q332.43 122.43 332.43 116.67L332.43 85.28Q332.43 79.61 329.55 76.54Q326.67 73.47 321.20 73.47Q315.73 73.47 312.85 76.54Q309.97 79.61 309.97 85.28L309.97 116.67Q309.97 122.43 312.90 125.50Q315.82 128.57 321.20 128.57M402.99 136.06L362.29 136.06L362.29 65.98L371.79 65.98L371.79 127.42L402.99 127.42L402.99 136.06M434.86 136.06L416.05 136.06L416.05 65.98L434.86 65.98Q441.68 65.98 446.72 68.62Q451.76 71.26 454.54 76.01Q457.33 80.76 457.33 87.20L457.33 114.75Q457.33 121.18 454.54 125.98Q451.76 130.78 446.72 133.42Q441.68 136.06 434.86 136.06M425.55 74.43L425.55 127.61L434.86 127.61Q440.91 127.61 444.37 124.16Q447.82 120.70 447.82 114.75L447.82 87.20Q447.82 81.24 444.37 77.84Q440.91 74.43 434.86 74.43L425.55 74.43M513.10 136.06L474.90 136.06L474.90 127.42L489.20 127.42L489.20 74.62L474.90 74.62L474.90 65.98L513.10 65.98L513.10 74.62L498.80 74.62L498.80 127.42L513.10 127.42L513.10 136.06M551.98 137.02Q542.29 137.02 536.58 131.60Q530.86 126.17 530.86 116.67L530.86 85.28Q530.86 75.87 536.58 70.44Q542.29 65.02 551.98 65.02Q561.58 65.02 567.30 70.49Q573.01 75.96 573.01 85.28L563.50 85.28Q563.50 79.61 560.43 76.54Q557.36 73.47 551.98 73.47Q546.51 73.47 543.44 76.54Q540.37 79.61 540.37 85.28L540.37 116.67Q540.37 122.43 543.44 125.50Q546.51 128.57 551.98 128.57Q557.36 128.57 560.43 125.50Q563.50 122.43 563.50 116.67L563.50 107.55L549.87 107.55L549.87 99.10L573.01 99.10L573.01 116.67Q573.01 126.08 567.30 131.55Q561.58 137.02 551.98 137.02M609.58 137.02Q599.89 137.02 594.18 131.60Q588.46 126.17 588.46 116.67L588.46 85.28Q588.46 75.87 594.18 70.44Q599.89 65.02 609.58 65.02Q619.18 65.02 624.90 70.49Q630.61 75.96 630.61 85.28L621.10 85.28Q621.10 79.61 618.03 76.54Q614.96 73.47 609.58 73.47Q604.11 73.47 601.04 76.54Q597.97 79.61 597.97 85.28L597.97 116.67Q597.97 122.43 601.04 125.50Q604.11 128.57 609.58 128.57Q614.96 128.57 618.03 125.50Q621.10 122.43 621.10 116.67L621.10 107.55L607.47 107.55L607.47 99.10L630.61 99.10L630.61 116.67Q630.61 126.08 624.90 131.55Q619.18 137.02 609.58 137.02M688.11 136.06L647.31 136.06L647.31 65.98L688.11 65.98L688.11 74.52L656.72 74.52L656.72 95.36L684.75 95.36L684.75 103.61L656.72 103.61L656.72 127.52L688.11 127.52L688.11 136.06M713.55 136.06L704.14 136.06L704.14 65.98L725.84 65.98Q732.27 65.98 737.07 68.52Q741.87 71.07 744.56 75.63Q747.25 80.19 747.25 86.33Q747.25 93.44 743.65 98.52Q740.05 103.61 734.10 105.72L748.21 136.06L737.74 136.06L724.40 106.78L713.55 106.78L713.55 136.06M713.55 74.43L713.55 98.33L725.84 98.33Q731.22 98.33 734.34 95.07Q737.46 91.80 737.46 86.43Q737.46 80.96 734.29 77.69Q731.12 74.43 725.84 74.43" fill="url(#paint2_linear_0_1)"/>
<g id="Group 1">
<rect id="Rectangle 1" x="26" y="168" width="12" height="184" rx="5" fill="url(#paint3_linear_0_1)" fill-opacity="0.9"/>
</g>
<g id="Group 1_2">
<rect id="Rectangle 2" x="26" y="38" width="12" height="119" rx="5" fill="url(#paint4_linear_0_1)" fill-opacity="0.9"/>
</g>
<ellipse id="Ellipse 1" cx="148.5" cy="573" rx="215.5" ry="214" fill="url(#paint5_linear_0_1)" fill-opacity="0.4"/>
<rect id="Rectangle 3" x="1229" y="48" width="300" height="300" rx="25" fill="#FFFBFB" fill-opacity="0.9"/>
<g id="placeholder-logo"><g transform="translate(1229,48) translate(0.0,60.0) scale(1.2000)"><g fill="#666666">
  <path d="m88.05,27.65c-3.15,4 -3.2,51.2 -0.05,54.35c2.75,2.75 71.7,3.15 74.45,0.45c2.85,-2.9 2.3,-53.85 -0.65,-55.9c-1.95,-1.35 -7.15,-1.55 -36.95,-1.55l-34.7,0l-2.1,2.65zm69.45,3.35c0.65,0 1,8.6 1,23.75l0,23.75l-33,0l-33,0l-0.25,-23c-0.15,-12.6 -0.1,-23.45 0.15,-24.1c0.35,-0.85 8.9,-1.05 32.25,-0.75c17.55,0.2 32.3,0.35 32.85,0.35z"/>
  <path d="m99.15,37.3c-6.85,7.35 4.25,17.35 11.4,10.25c1.35,-1.35 2.45,-3.65 2.45,-5.05c0,-6.45 -9.35,-9.95 -13.85,-5.2z"/>
  <path d="m135,42.5c-0.7,0.85 -5.25,5.15 -10.1,9.6l-8.85,8.1l-3.2,-3.2l-3.15,-3.15l-6.35,6.3c-5.55,5.5 -6.35,6.75 -6.35,10.05l0,3.8l28.5,0l28.5,0l0,-8.6l0,-8.55l-8.15,-7.7c-9.35,-8.85 -9.15,-8.7 -10.85,-6.65zm7.25,15.2c0.95,0.9 1.75,2.9 1.75,4.45c6.35,-5.05 4.75,-7.15 4.9,-11.55c0.95,0 0,0 0,0l-6.65,7.1z"/>
  <path d="m53.65,110.75c0.1,4.8 0.45,8.65 0.75,8.5c0.35,-0.15 1.3,-0.25 2.1,-0.25c1.1,0 1.5,-1.2 1.5,-4.75l0,-4.75l3.25,5c4.9,7.5 6.2,6.75 6.55,-3.75c0.25,-8.15 0.15,-8.75 -1.7,-8.75c-1.65,0 -2.05,0.8 -2.3,4.75l-0.3,4.75l-2.8,-4.75c-4.85,-8.25 -7.25,-6.9 -7.05,4z"/>
  <path d="m91,108.9c0,9.65 0.3,10.1 6.1,10.1c5.8,0 7.15,-2.65 1.65,-3.2l-3.25,-0.3l-0.3,-6.75c-0.25,-5.95 -0.55,-6.75 -2.25,-6.75c-1.75,0 -1.95,0.7 -1.95,6.9z"/>
  <path d="m151,102.45c0,0.25 1,2.15 2.25,4.2c1.2,2.1 2.45,5.8 2.75,8.25c0.65,5.9 4,6.95 4,1.25c0.05,-2.1 1.25,-5.85 2.95,-8.9l2.9,-5.25l-2.5,0c-1.8,0 -2.8,0.85 -3.75,3.1l-1.3,3.05l-1.25,-3.05c-1.1,-2.6 -6.05,-4.8 -6.05,-2.65z"/>
  <path d="m191,107.45c0,9.05 3.4,8.85 4.25,-0.2c0.45,-5 0.35,-5.25 -1.9,-5.25c-2.2,0 -2.35,0.4 -2.35,5.45z"/>
  <path d="m180.8,104.75c-1.3,5.35 0.65,13.6 3.45,14.35c2.3,0.6 2.75,0.4 2.75,-1.2c0,-1.05 -0.45,-1.9 -1,-1.9c-0.55,0 -1,-1.6 -1,-3.5c0,-1.95 0.45,-3.5 1,-3.5c0.55,0 1,-0.7 1,-1.5c0,-0.85 -0.45,-1.5 -1,-1.5c-0.55,0 -1,-0.7 -1,-1.5c0,-2.1 -3.65,-1.9 -4.2,0.25z"/>
  <path d="m71.55,106.55c-2.2,2.25 -2.05,9.7 0.3,11.8c4.5,4.1 10.15,0.75 10.15,-6.1c0,-4.85 -2,-7.25 -6,-7.25c-1.55,0 -3.55,0.7 -4.45,1.55zm6.25,5.8c0.25,3.05 0,3.65 -1.6,3.65c-2.3,0 -3.25,-2.65 -2.05,-5.85c1.25,-3.35 3.3,-2.1 3.65,2.2z"/>
  <path d="m105.75,106.1c-2.5,1.45 -2.45,9.95 0.1,12.25c4.3,3.9 10.15,0.35 10.15,-6.2c0,-6 -5.15,-9.05 -10.25,-6.05zm6.05,6.25c0.25,3.05 0,3.65 -1.6,3.65c-2.3,0 -3.25,-2.65 -2.05,-5.85c1.25,-3.35 3.3,-2.1 3.65,2.2z"/>
  <path d="m119.2,106.2c-3.8,3.8 -0.4,12.55 4.4,11.35c1.9,-0.45 2.45,-0.3 2.15,0.65c-0.25,0.7 -1.55,1.2 -2.85,1.1c-4.05,-0.3 -5.35,0.45 -3.85,2.25c0.85,1.05 2.6,1.45 5.35,1.25l4.1,-0.3l0.3,-8.75l0.3,-8.75l-4.35,0c-2.4,0 -4.9,0.55 -5.55,1.2zm6.6,4.45c0.4,2.85 -2.15,4.85 -3.75,2.95c-0.9,-1.1 -0.9,-2 -0.05,-3.6c1.35,-2.5 3.4,-2.15 3.8,0.65z"/>
  <path d="m133.55,106.55c-2.2,2.25 -2.05,9.7 0.3,11.8c4.5,4.1 10.15,0.75 10.15,-6.1c0,-4.85 -2,-7.25 -6,-7.25c-1.55,0 -3.55,0.7 -4.45,1.55zm6.25,5.8c0.25,3.05 0,3.65 -1.6,3.65c-2.3,0 -3.25,-2.65 -2.05,-5.85c1.25,-3.35 3.3,-2.1 3.65,2.2z"/>
  <path d="m167.65,106.85c-3.9,4.3 -0.75,13.15 4.7,13.15c2.4,0 5.65,-2.75 5.65,-4.85c0,-1.4 -2.65,-1.55 -3.5,-0.15c-0.95,1.55 -4.5,1.15 -4.5,-0.5c0,-1.1 1.1,-1.5 4,-1.5c3.15,0 4,-0.35 4,-1.8c0,-5.3 -6.85,-8.25 -10.35,-4.35z"/>
  <path d="m191,117.5c0,2.15 0.4,2.6 2.25,2.3c1.5,-0.2 2.25,-1 2.25,-2.3c0,-1.3 -0.75,-2.1 -2.25,-2.3c-1.85,-0.3 -2.25,0.15 -2.25,2.3z"/>
 </g></g></g>
</g>
<defs>
<linearGradient id="paint0_linear_0_1" x1="0" y1="198" x2="1584" y2="198" gradientUnits="userSpaceOnUse">
<stop stop-color="#3D052C"/>
<stop offset="1"/>
</linearGradient>
<linearGradient id="paint1_linear_0_1" x1="323" y1="-224" x2="323" y2="352" gradientUnits="userSpaceOnUse">
<stop stop-color="#28F6F2" stop-opacity="0.4"/>
<stop offset="1" stop-color="#17908E" stop-opacity="0.7"/>
</linearGradient>
<linearGradient id="paint2_linear_0_1" x1="148.5" y1="38" x2="148.5" y2="140" gradientUnits="userSpaceOnUse">
<stop stop-color="white"/>
<stop offset="1" stop-color="#999999"/>
</linearGradient>
<linearGradient id="paint3_linear_0_1" x1="38" y1="260" x2="26" y2="260" gradientUnits="userSpaceOnUse">
<stop stop-color="#D9D9D9"/>
<stop offset="1" stop-color="#737373"/>
</linearGradient>
<linearGradient id="paint4_linear_0_1" x1="38" y1="97.5" x2="26" y2="97.5" gradientUnits="userSpaceOnUse">
<stop stop-color="#D9D9D9"/>
<stop offset="1" stop-color="#737373"/>
</linearGradient>
<linearGradient id="paint5_linear_0_1" x1="27.5" y1="434.5" x2="148.5" y2="787" gradientUnits="userSpaceOnUse">
<stop stop-color="#2E21BC"/>
<stop offset="1" stop-color="#150F56"/>
</linearGradient>
<clipPath id="clip0_0_1">
<rect width="1584" height="396" fill="white"/>
</clipPath>
</defs>
</svg>
